<?xml version="1.0" encoding="UTF-8" standalone="no"?>
<svg width="23px" height="12px" viewBox="0 0 23 12" version="1.1" xmlns="http://www.w3.org/2000/svg" xmlns:xlink="http://www.w3.org/1999/xlink" xmlns:sketch="http://www.bohemiancoding.com/sketch/ns">
    <!-- Generator: Sketch 3.2.2 (9983) - http://www.bohemiancoding.com/sketch -->
    <title>code</title>
    <desc>Created with Sketch.</desc>
    <defs></defs>
    <g id="Page-1" stroke="none" stroke-width="1" fill="none" fill-rule="evenodd" sketch:type="MSPage">
        <g id="take2.2-2" sketch:type="MSArtboardGroup" transform="translate(-378.000000, -615.000000)" fill="#4883C3">
            <g id="Group" sketch:type="MSLayerGroup" transform="translate(350.000000, 480.000000)">
                <g id="code-button" transform="translate(20.000000, 121.000000)" sketch:type="MSShapeGroup">
                    <g id="code" transform="translate(8.000000, 14.000000)">
                        <path d="M17.7415934,11.9895652 C17.5851429,11.9895652 17.4279341,11.9347826 17.2992857,11.8226087 C17.0096374,11.5703478 16.972989,11.1232174 17.2173956,10.8242609 L21.1625275,6 L17.2176484,1.17573913 C16.9732418,0.876782609 17.0098901,0.429913043 17.2995385,0.177391304 C17.5891868,-0.0751304348 18.0221429,-0.0373043478 18.2668022,0.261652174 L22.5854945,5.54295652 C22.8013407,5.80695652 22.8013407,6.19304348 22.5854945,6.45678261 L18.2665495,11.7378261 C18.1308242,11.904 17.936967,11.9895652 17.7415934,11.9895652 L17.7415934,11.9895652 Z" id="Shape"></path>
                        <path d="M5.00565934,11.9895652 C4.81053846,11.9895652 4.61668132,11.904 4.48095604,11.738087 L0.162010989,6.45704348 C-0.0538351648,6.19304348 -0.0538351648,5.80695652 0.162010989,5.54321739 L4.48095604,0.261913043 C4.72536264,-0.0370434783 5.15857143,-0.0748695652 5.44821978,0.177391304 C5.73786813,0.429652174 5.77451648,0.876782609 5.53010989,1.17573913 L1.58447253,6.00026087 L5.5296044,10.8242609 C5.77401099,11.1232174 5.73761538,11.570087 5.44796703,11.8226087 C5.31906593,11.9345217 5.16185714,11.9895652 5.00565934,11.9895652 L5.00565934,11.9895652 Z" id="Shape"></path>
                        <path d="M8.17005495,11.9895652 C8.0457033,11.9895652 7.91983516,11.9546087 7.8066044,11.8815652 C7.48536264,11.673913 7.3878022,11.2369565 7.58898901,10.9053913 L13.9946154,0.343043478 C14.1958022,0.0114782609 14.6194066,-0.0889565217 14.9406484,0.118434783 C15.2618901,0.326086957 15.3594505,0.763043478 15.1582637,1.0946087 L8.75263736,11.6569565 C8.62247253,11.8716522 8.39879121,11.9895652 8.17005495,11.9895652 L8.17005495,11.9895652 Z" id="Shape"></path>
                    </g>
                </g>
            </g>
        </g>
    </g>
</svg>