<svg width="23" height="12" viewBox="0 0 23 12" xmlns="http://www.w3.org/2000/svg"><title>code</title><desc>Created with Sketch.</desc><g fill="none" fill-rule="evenodd"><g fill="#4883C3"><g><g><g><path d="M17.742 11.99c-.157 0-.314-.055-.443-.167-.29-.253-.327-.7-.083-1L21.163 6l-3.945-4.824c-.245-.3-.208-.746.082-1 .29-.25.722-.213.967.086l4.318 5.28c.216.265.216.65 0 .915l-4.318 5.28c-.136.167-.33.253-.525.253zM5.006 11.99c-.195 0-.39-.086-.525-.252L.163 6.458c-.216-.265-.216-.65 0-.915l4.32-5.28c.243-.3.677-.338.966-.086.29.253.327.7.082 1L1.584 6l3.946 4.824c.244.3.208.746-.082 1-.13.11-.286.166-.442.166zM8.17 11.99c-.124 0-.25-.035-.363-.108-.322-.208-.42-.645-.218-.977L13.994.343c.2-.332.624-.432.946-.225.322.208.42.645.218.977L8.753 11.657c-.13.215-.354.333-.583.333z"/></g></g></g></g></g></svg>